<svg width="30" height="30" viewBox="0 0 30 30" fill="none" xmlns="http://www.w3.org/2000/svg">
<path d="M1 5.16822C1 4.01204 1.93727 3.07477 3.09346 3.07477H26.9065C28.0627 3.07477 29 4.01204 29 5.16822V27.8037C29 28.9599 28.0627 29.8972 26.9065 29.8972H3.09346C1.93727 29.8972 1 28.9599 1 27.8037V5.16822Z" fill="black"/>
<path d="M2.70093 11.1215H27.2991V27.6729C27.2991 27.9981 27.0355 28.2617 26.7103 28.2617H3.28972C2.96454 28.2617 2.70093 27.9981 2.70093 27.6729V11.1215Z" fill="white"/>
<path d="M9.70093 6.08411C9.70093 7.02351 8.9394 7.78505 8 7.78505C7.0606 7.78505 6.29907 7.02351 6.29907 6.08411C6.29907 5.14471 7.0606 4.38318 8 4.38318C8.9394 4.38318 9.70093 5.14471 9.70093 6.08411Z" fill="white"/>
<path d="M6.88785 1.11215C6.88785 0.497926 7.38578 0 8 0C8.61422 0 9.11215 0.497926 9.11215 1.11215V5.95327C9.11215 6.56749 8.61422 7.06542 8 7.06542C7.38578 7.06542 6.88785 6.56749 6.88785 5.95327V1.11215Z" fill="black"/>
<path d="M23.7009 6.08411C23.7009 7.02351 22.9394 7.78505 22 7.78505C21.0606 7.78505 20.2991 7.02351 20.2991 6.08411C20.2991 5.14471 21.0606 4.38318 22 4.38318C22.9394 4.38318 23.7009 5.14471 23.7009 6.08411Z" fill="white"/>
<path d="M20.8879 1.11215C20.8879 0.497926 21.3858 0 22 0C22.6142 0 23.1121 0.497926 23.1121 1.11215V5.95327C23.1121 6.56749 22.6142 7.06542 22 7.06542C21.3858 7.06542 20.8879 6.56749 20.8879 5.95327V1.11215Z" fill="black"/>
<path d="M6.77879 18.8221C7.17456 18.8221 7.51439 18.706 7.79831 18.4737C8.08652 18.2414 8.23063 17.908 8.23063 17.4736C8.23063 17.1423 8.11664 16.8584 7.88864 16.6218C7.66065 16.3809 7.35308 16.2605 6.96592 16.2605C6.70351 16.2605 6.48628 16.297 6.31421 16.3702C6.14644 16.4433 6.01308 16.5401 5.91414 16.6605C5.8152 16.781 5.72057 16.9358 5.63023 17.1251C5.54419 17.3144 5.46461 17.4929 5.39148 17.6607C5.34847 17.751 5.27103 17.822 5.15919 17.8736C5.04734 17.9252 4.91829 17.951 4.77203 17.951C4.59996 17.951 4.4408 17.8822 4.29454 17.7446C4.15258 17.6026 4.0816 17.4155 4.0816 17.1832C4.0816 16.9595 4.14828 16.725 4.28163 16.4798C4.41929 16.2303 4.61717 15.9938 4.87527 15.7701C5.13768 15.5464 5.46246 15.3678 5.84962 15.2345C6.23678 15.0968 6.6691 15.028 7.14659 15.028C7.56386 15.028 7.94457 15.0861 8.28871 15.2022C8.63285 15.3141 8.93182 15.4775 9.18562 15.6926C9.43942 15.9077 9.63085 16.1572 9.7599 16.4411C9.88895 16.725 9.95348 17.0305 9.95348 17.3574C9.95348 17.7876 9.85884 18.1575 9.66957 18.4673C9.48459 18.7727 9.21788 19.0716 8.86944 19.3642C9.20498 19.5448 9.48674 19.7513 9.71473 19.9836C9.94703 20.2159 10.1212 20.474 10.2374 20.7579C10.3535 21.0375 10.4116 21.3408 10.4116 21.6677C10.4116 22.0592 10.332 22.4378 10.1729 22.8034C10.018 23.1691 9.78786 23.496 9.48244 23.7842C9.17702 24.0681 8.81352 24.2918 8.39195 24.4553C7.97468 24.6144 7.51224 24.694 7.00464 24.694C6.48843 24.694 6.02599 24.6015 5.61732 24.4166C5.20866 24.2316 4.87097 24.0014 4.60426 23.7261C4.34186 23.4465 4.14183 23.1583 4.00417 22.8615C3.87082 22.5647 3.80414 22.3195 3.80414 22.1259C3.80414 21.8764 3.88372 21.6764 4.04289 21.5258C4.20635 21.3709 4.40853 21.2935 4.64943 21.2935C4.76988 21.2935 4.88603 21.3301 4.99787 21.4032C5.10972 21.472 5.18285 21.5559 5.21726 21.6548C5.44095 22.2528 5.6797 22.698 5.9335 22.9905C6.19161 23.2788 6.55295 23.4229 7.01754 23.4229C7.28425 23.4229 7.5402 23.3583 7.7854 23.2293C8.0349 23.0959 8.23924 22.9002 8.3984 22.6421C8.56187 22.384 8.6436 22.085 8.6436 21.7452C8.6436 21.2419 8.50594 20.8483 8.23063 20.5644C7.95532 20.2761 7.57247 20.132 7.08207 20.132C6.99603 20.132 6.86268 20.1406 6.68201 20.1578C6.50133 20.175 6.38519 20.1836 6.33356 20.1836C6.09697 20.1836 5.91414 20.1256 5.78509 20.0094C5.65604 19.889 5.59151 19.7234 5.59151 19.5126C5.59151 19.3061 5.66895 19.1405 5.82381 19.0157C5.97867 18.8867 6.20881 18.8221 6.51424 18.8221H6.77879Z" fill="black"/>
<path d="M13.4121 19.4158C13.7046 19.0673 14.0229 18.8092 14.3671 18.6415C14.7112 18.4737 15.0962 18.3898 15.5221 18.3898C15.9308 18.3898 16.3072 18.4673 16.6513 18.6221C16.9997 18.7727 17.303 18.9899 17.5611 19.2738C17.8235 19.5534 18.0257 19.8847 18.1677 20.2675C18.3096 20.6504 18.3806 21.0504 18.3806 21.4677C18.3806 22.0743 18.2408 22.6249 17.9612 23.1196C17.6859 23.6143 17.2987 24.0014 16.7997 24.2811C16.305 24.5564 15.7436 24.694 15.1156 24.694C14.3929 24.694 13.7691 24.5177 13.2443 24.1649C12.7195 23.8122 12.3173 23.2917 12.0377 22.6034C11.7624 21.9108 11.6247 21.0655 11.6247 20.0675C11.6247 19.2545 11.7086 18.5275 11.8764 17.8865C12.0441 17.2456 12.285 16.7143 12.5991 16.2927C12.9131 15.8712 13.2938 15.5528 13.7412 15.3377C14.1885 15.1226 14.6983 15.0151 15.2704 15.0151C15.8211 15.0151 16.305 15.1226 16.7223 15.3377C17.1438 15.5528 17.46 15.8195 17.6708 16.1379C17.8859 16.4562 17.9934 16.7616 17.9934 17.0541C17.9934 17.2305 17.9268 17.3918 17.7934 17.5381C17.6601 17.68 17.4901 17.751 17.2837 17.751C17.103 17.751 16.9352 17.6951 16.7803 17.5832C16.6255 17.4671 16.5115 17.3079 16.4384 17.1058C16.3394 16.8476 16.1824 16.6412 15.9673 16.4863C15.7522 16.3271 15.5027 16.2476 15.2188 16.2476C14.9908 16.2476 14.7628 16.3142 14.5348 16.4476C14.3111 16.5766 14.1219 16.753 13.967 16.9767C13.653 17.4327 13.468 18.2457 13.4121 19.4158ZM15.1543 23.4229C15.5888 23.4229 15.948 23.2465 16.2319 22.8937C16.5158 22.5367 16.6577 22.07 16.6577 21.4935C16.6577 21.1021 16.5911 20.7665 16.4577 20.4869C16.3244 20.203 16.1415 19.9879 15.9092 19.8417C15.6769 19.6911 15.421 19.6158 15.1414 19.6158C14.8747 19.6158 14.6187 19.6868 14.3735 19.8288C14.1326 19.9707 13.9369 20.1772 13.7863 20.4482C13.6401 20.7149 13.5669 21.0289 13.5669 21.3903C13.5669 21.971 13.7175 22.455 14.0186 22.8421C14.3197 23.2293 14.6983 23.4229 15.1543 23.4229Z" fill="black"/>
<path d="M24.9945 16.667H21.9295L21.5617 18.7576C22.1726 18.4307 22.7361 18.2672 23.2523 18.2672C23.6653 18.2672 24.0503 18.3447 24.4073 18.4995C24.7687 18.6544 25.0849 18.8695 25.3559 19.1448C25.6269 19.4158 25.8398 19.7384 25.9947 20.1127C26.1495 20.4869 26.227 20.8891 26.227 21.3193C26.227 21.9431 26.0872 22.5109 25.8076 23.0228C25.5279 23.5347 25.1236 23.9412 24.5945 24.2423C24.0696 24.5435 23.4631 24.694 22.7748 24.694C22.0048 24.694 21.3789 24.5521 20.8971 24.2682C20.4196 23.9842 20.0798 23.6595 19.8776 23.2938C19.6797 22.9239 19.5808 22.6012 19.5808 22.3259C19.5808 22.1581 19.6496 21.999 19.7873 21.8484C19.9292 21.6979 20.1056 21.6226 20.3164 21.6226C20.6777 21.6226 20.9466 21.8312 21.123 22.2485C21.295 22.6313 21.5273 22.9303 21.8198 23.1454C22.1124 23.3562 22.4393 23.4616 22.8006 23.4616C23.1319 23.4616 23.4222 23.3755 23.6717 23.2035C23.9212 23.0314 24.1127 22.7948 24.246 22.4937C24.3837 22.1926 24.4525 21.8506 24.4525 21.4677C24.4525 21.0548 24.3794 20.702 24.2331 20.4095C24.0869 20.117 23.8911 19.8997 23.6459 19.7578C23.4007 19.6115 23.1276 19.5384 22.8264 19.5384C22.4565 19.5384 22.1919 19.5836 22.0328 19.6739C21.8736 19.7642 21.6435 19.9234 21.3423 20.1514C21.0455 20.3751 20.8003 20.4869 20.6067 20.4869C20.396 20.4869 20.2088 20.4116 20.0454 20.2611C19.8819 20.1062 19.8002 19.932 19.8002 19.7384C19.8002 19.7169 19.8238 19.5707 19.8711 19.2996L20.4132 16.2088C20.4734 15.8389 20.5852 15.57 20.7487 15.4023C20.9122 15.2345 21.1789 15.1506 21.5488 15.1506H24.9558C25.6269 15.1506 25.9624 15.4066 25.9624 15.9185C25.9624 16.1422 25.8807 16.3228 25.7172 16.4605C25.5538 16.5981 25.3129 16.667 24.9945 16.667Z" fill="black"/>
</svg>
